<?xml version="1.0" standalone="no"?>
<!DOCTYPE svg PUBLIC "-//W3C//DTD SVG 20010904//EN"
 "http://www.w3.org/TR/2001/REC-SVG-20010904/DTD/svg10.dtd">
<svg version="1.0" xmlns="http://www.w3.org/2000/svg"
 width="70.000000pt" height="70.000000pt" viewBox="0 0 70.000000 70.000000"
 preserveAspectRatio="xMidYMid meet">
<metadata>
Created by potrace 1.14, written by Peter Selinger 2001-2017
</metadata>
<g transform="translate(0.000000,70.000000) scale(0.100000,-0.100000)"
fill="#000000" stroke="none">
<path d="M400 593 c-10 -2 -26 -35 -42 -81 -14 -42 -46 -134 -71 -205 l-44
-127 31 0 c30 0 33 3 58 77 14 43 47 135 71 206 25 70 45 127 44 128 -9 4 -35
5 -47 2z"/>
<path d="M135 441 c-94 -36 -100 -40 -103 -68 -3 -30 -1 -32 70 -58 40 -15 88
-34 106 -41 32 -13 32 -13 32 16 0 26 -6 30 -65 52 -36 12 -65 26 -65 29 0 4
29 17 65 30 59 21 65 25 65 51 0 15 -1 28 -2 28 -2 -1 -48 -18 -103 -39z"/>
<path d="M470 452 c0 -26 6 -30 65 -51 36 -13 65 -27 65 -32 0 -5 -4 -9 -10
-9 -5 0 -34 -9 -65 -21 -49 -18 -55 -24 -55 -49 l0 -29 58 23 c31 13 78 31
105 40 41 16 47 21 47 47 0 32 8 28 -132 80 l-78 28 0 -27z"/>
</g>
</svg>
